<svg width="73" height="73" viewBox="0 0 73 73" fill="none" xmlns="http://www.w3.org/2000/svg">
<g filter="url(#filter0_d_0_2379)">
<g filter="url(#filter1_i_0_2379)">
<path d="M60.4927 30.1875C60.4927 42.0961 50.8388 51.75 38.9302 51.75C27.0215 51.75 17.3677 42.0961 17.3677 30.1875C17.3677 18.2789 27.0215 8.625 38.9302 8.625C50.8388 8.625 60.4927 18.2789 60.4927 30.1875Z" fill="black"/>
</g>
<g filter="url(#filter2_i_0_2379)">
<path fill-rule="evenodd" clip-rule="evenodd" d="M55.2174 16.0566C51.433 12.7704 46.492 10.7812 41.0864 10.7812C29.1778 10.7812 19.5239 20.4351 19.5239 32.3438C19.5239 37.7493 21.513 42.6903 24.7992 46.4747C20.2465 42.5213 17.3677 36.6906 17.3677 30.1875C17.3677 18.2789 27.0215 8.625 38.9302 8.625C45.4333 8.625 51.2639 11.5038 55.2174 16.0566Z" fill="#00F2EA"/>
</g>
<g filter="url(#filter3_i_0_2379)">
<path fill-rule="evenodd" clip-rule="evenodd" d="M36.7739 49.5938C48.6825 49.5938 58.3364 39.94 58.3364 28.0313C58.3364 22.6258 56.3473 17.6848 53.0611 13.9004C57.6138 17.8538 60.4926 23.6845 60.4926 30.1876C60.4926 42.0962 50.8388 51.7501 38.9301 51.7501C32.4271 51.7501 26.5964 48.8713 22.6429 44.3185C26.4273 47.6047 31.3683 49.5938 36.7739 49.5938Z" fill="#FF004F"/>
</g>
<g filter="url(#filter4_bii_0_2379)">
<path fill-rule="evenodd" clip-rule="evenodd" d="M30.3052 60.375C42.2138 60.375 51.8677 50.7211 51.8677 38.8125C51.8677 26.9039 42.2138 17.25 30.3052 17.25C18.3965 17.25 8.74268 26.9039 8.74268 38.8125C8.74268 50.7211 18.3965 60.375 30.3052 60.375ZM21.7315 49.1386L21.73 49.1375C20.3629 47.6742 19.5239 45.7148 19.5239 43.5625C19.5239 39.1118 23.1042 35.4826 27.5449 35.3787C27.5707 35.3782 27.5963 35.3773 27.622 35.3764C27.6607 35.3751 27.6994 35.3737 27.7385 35.3737C28.1089 35.3755 28.4789 35.4024 28.8456 35.4541V39.9957C28.4956 39.8862 28.1252 39.8225 27.7385 39.8225C26.7437 39.8236 25.79 40.2181 25.0866 40.9192C24.3832 41.6204 23.9876 42.571 23.9866 43.5625C23.9867 44.3454 24.2349 45.1084 24.6958 45.7424L24.6976 45.7433C25.0441 46.225 25.5006 46.6175 26.0294 46.8885C26.5583 47.1595 27.1443 47.3013 27.7389 47.3019C29.7601 47.3019 31.409 45.6993 31.484 43.7029L31.4909 25.875H35.9541C35.9535 27.3671 36.4962 28.8088 37.4813 29.9323C38.3624 30.9438 39.5494 31.6432 40.8633 31.9257V31.925C41.2833 32.0147 41.7178 32.063 42.1646 32.063V36.5123C39.9363 36.5149 37.7637 35.8186 35.9546 34.5221V43.5625C35.9546 48.0768 32.2691 51.75 27.7389 51.75C26.6108 51.7503 25.4948 51.5183 24.4608 51.0687C23.4274 50.6193 22.4983 49.9622 21.7315 49.1386Z" fill="white" fill-opacity="0.4"/>
</g>
</g>
<defs>
<filter id="filter0_d_0_2379" x="4.74268" y="4.625" width="67.75" height="67.75" filterUnits="userSpaceOnUse" color-interpolation-filters="sRGB">
<feFlood flood-opacity="0" result="BackgroundImageFix"/>
<feColorMatrix in="SourceAlpha" type="matrix" values="0 0 0 0 0 0 0 0 0 0 0 0 0 0 0 0 0 0 127 0" result="hardAlpha"/>
<feOffset dx="4" dy="4"/>
<feGaussianBlur stdDeviation="4"/>
<feColorMatrix type="matrix" values="0 0 0 0 1 0 0 0 0 0.341176 0 0 0 0 0.54902 0 0 0 0.4 0"/>
<feBlend mode="normal" in2="BackgroundImageFix" result="effect1_dropShadow_0_2379"/>
<feBlend mode="normal" in="SourceGraphic" in2="effect1_dropShadow_0_2379" result="shape"/>
</filter>
<filter id="filter1_i_0_2379" x="17.3677" y="8.625" width="43.125" height="43.125" filterUnits="userSpaceOnUse" color-interpolation-filters="sRGB">
<feFlood flood-opacity="0" result="BackgroundImageFix"/>
<feBlend mode="normal" in="SourceGraphic" in2="BackgroundImageFix" result="shape"/>
<feColorMatrix in="SourceAlpha" type="matrix" values="0 0 0 0 0 0 0 0 0 0 0 0 0 0 0 0 0 0 127 0" result="hardAlpha"/>
<feOffset/>
<feGaussianBlur stdDeviation="4"/>
<feComposite in2="hardAlpha" operator="arithmetic" k2="-1" k3="1"/>
<feColorMatrix type="matrix" values="0 0 0 0 1 0 0 0 0 1 0 0 0 0 1 0 0 0 0.8 0"/>
<feBlend mode="normal" in2="shape" result="effect1_innerShadow_0_2379"/>
</filter>
<filter id="filter2_i_0_2379" x="17.3677" y="8.625" width="37.8497" height="37.8496" filterUnits="userSpaceOnUse" color-interpolation-filters="sRGB">
<feFlood flood-opacity="0" result="BackgroundImageFix"/>
<feBlend mode="normal" in="SourceGraphic" in2="BackgroundImageFix" result="shape"/>
<feColorMatrix in="SourceAlpha" type="matrix" values="0 0 0 0 0 0 0 0 0 0 0 0 0 0 0 0 0 0 127 0" result="hardAlpha"/>
<feOffset/>
<feGaussianBlur stdDeviation="4"/>
<feComposite in2="hardAlpha" operator="arithmetic" k2="-1" k3="1"/>
<feColorMatrix type="matrix" values="0 0 0 0 1 0 0 0 0 1 0 0 0 0 1 0 0 0 0.8 0"/>
<feBlend mode="normal" in2="shape" result="effect1_innerShadow_0_2379"/>
</filter>
<filter id="filter3_i_0_2379" x="22.6429" y="13.9004" width="37.8497" height="37.8496" filterUnits="userSpaceOnUse" color-interpolation-filters="sRGB">
<feFlood flood-opacity="0" result="BackgroundImageFix"/>
<feBlend mode="normal" in="SourceGraphic" in2="BackgroundImageFix" result="shape"/>
<feColorMatrix in="SourceAlpha" type="matrix" values="0 0 0 0 0 0 0 0 0 0 0 0 0 0 0 0 0 0 127 0" result="hardAlpha"/>
<feOffset/>
<feGaussianBlur stdDeviation="4"/>
<feComposite in2="hardAlpha" operator="arithmetic" k2="-1" k3="1"/>
<feColorMatrix type="matrix" values="0 0 0 0 1 0 0 0 0 1 0 0 0 0 1 0 0 0 0.8 0"/>
<feBlend mode="normal" in2="shape" result="effect1_innerShadow_0_2379"/>
</filter>
<filter id="filter4_bii_0_2379" x="4.74268" y="13.25" width="51.125" height="51.125" filterUnits="userSpaceOnUse" color-interpolation-filters="sRGB">
<feFlood flood-opacity="0" result="BackgroundImageFix"/>
<feGaussianBlur in="BackgroundImageFix" stdDeviation="2"/>
<feComposite in2="SourceAlpha" operator="in" result="effect1_backgroundBlur_0_2379"/>
<feBlend mode="normal" in="SourceGraphic" in2="effect1_backgroundBlur_0_2379" result="shape"/>
<feColorMatrix in="SourceAlpha" type="matrix" values="0 0 0 0 0 0 0 0 0 0 0 0 0 0 0 0 0 0 127 0" result="hardAlpha"/>
<feOffset/>
<feGaussianBlur stdDeviation="2"/>
<feComposite in2="hardAlpha" operator="arithmetic" k2="-1" k3="1"/>
<feColorMatrix type="matrix" values="0 0 0 0 1 0 0 0 0 1 0 0 0 0 1 0 0 0 1 0"/>
<feBlend mode="normal" in2="shape" result="effect2_innerShadow_0_2379"/>
<feColorMatrix in="SourceAlpha" type="matrix" values="0 0 0 0 0 0 0 0 0 0 0 0 0 0 0 0 0 0 127 0" result="hardAlpha"/>
<feOffset dy="4"/>
<feGaussianBlur stdDeviation="4"/>
<feComposite in2="hardAlpha" operator="arithmetic" k2="-1" k3="1"/>
<feColorMatrix type="matrix" values="0 0 0 0 1 0 0 0 0 1 0 0 0 0 1 0 0 0 1 0"/>
<feBlend mode="normal" in2="effect2_innerShadow_0_2379" result="effect3_innerShadow_0_2379"/>
</filter>
</defs>
</svg>
