<svg width="33" height="33" viewBox="0 0 33 33" fill="none" xmlns="http://www.w3.org/2000/svg">
<g filter="url(#filter0_bii_93_73)">
<path fill-rule="evenodd" clip-rule="evenodd" d="M16.3125 32.625C25.1145 32.625 32.25 25.4895 32.25 16.6875C32.25 7.88546 25.1145 0.75 16.3125 0.75C7.51046 0.75 0.375 7.88546 0.375 16.6875C0.375 25.4895 7.51046 32.625 16.3125 32.625ZM9.97547 24.3198L9.97435 24.319C8.96388 23.2375 8.34375 21.7892 8.34375 20.1984C8.34375 16.9088 10.99 14.2263 14.2723 14.1494C14.2913 14.1491 14.3103 14.1484 14.3293 14.1478C14.3579 14.1468 14.3865 14.1458 14.4154 14.1458C14.6892 14.1471 14.9626 14.167 15.2337 14.2052V17.562C14.975 17.4811 14.7012 17.434 14.4154 17.434C13.6801 17.4349 12.9752 17.7264 12.4553 18.2446C11.9354 18.7629 11.643 19.4655 11.6423 20.1984C11.6423 20.7771 11.8257 21.341 12.1665 21.8096L12.1677 21.8102C12.4238 22.1663 12.7613 22.4564 13.1521 22.6567C13.543 22.8571 13.9762 22.9618 14.4157 22.9623C15.9096 22.9623 17.1283 21.7778 17.1838 20.3021L17.1889 7.125H20.4878C20.4874 8.22787 20.8884 9.29344 21.6166 10.1239C22.2679 10.8715 23.1452 11.3885 24.1163 11.5972V11.5968C24.4268 11.663 24.7479 11.6987 25.0781 11.6987V14.9874C23.4311 14.9893 21.8253 14.4746 20.4882 13.5163V20.1984C20.4882 23.5351 17.7641 26.25 14.4157 26.25C13.5819 26.2502 12.757 26.0788 11.9927 25.7464C11.229 25.4143 10.5422 24.9286 9.97547 24.3198Z" fill="white" fill-opacity="0.4"/>
</g>
<defs>
<filter id="filter0_bii_93_73" x="-3.625" y="-3.25" width="39.875" height="39.875" filterUnits="userSpaceOnUse" color-interpolation-filters="sRGB">
<feFlood flood-opacity="0" result="BackgroundImageFix"/>
<feGaussianBlur in="BackgroundImageFix" stdDeviation="2"/>
<feComposite in2="SourceAlpha" operator="in" result="effect1_backgroundBlur_93_73"/>
<feBlend mode="normal" in="SourceGraphic" in2="effect1_backgroundBlur_93_73" result="shape"/>
<feColorMatrix in="SourceAlpha" type="matrix" values="0 0 0 0 0 0 0 0 0 0 0 0 0 0 0 0 0 0 127 0" result="hardAlpha"/>
<feOffset/>
<feGaussianBlur stdDeviation="2"/>
<feComposite in2="hardAlpha" operator="arithmetic" k2="-1" k3="1"/>
<feColorMatrix type="matrix" values="0 0 0 0 1 0 0 0 0 1 0 0 0 0 1 0 0 0 1 0"/>
<feBlend mode="normal" in2="shape" result="effect2_innerShadow_93_73"/>
<feColorMatrix in="SourceAlpha" type="matrix" values="0 0 0 0 0 0 0 0 0 0 0 0 0 0 0 0 0 0 127 0" result="hardAlpha"/>
<feOffset dy="4"/>
<feGaussianBlur stdDeviation="4"/>
<feComposite in2="hardAlpha" operator="arithmetic" k2="-1" k3="1"/>
<feColorMatrix type="matrix" values="0 0 0 0 1 0 0 0 0 1 0 0 0 0 1 0 0 0 1 0"/>
<feBlend mode="normal" in2="effect2_innerShadow_93_73" result="effect3_innerShadow_93_73"/>
</filter>
</defs>
</svg>
