<svg width="33" height="33" viewBox="0 0 33 33" fill="none" xmlns="http://www.w3.org/2000/svg">
<g filter="url(#filter0_bii_93_53)">
<path fill-rule="evenodd" clip-rule="evenodd" d="M16.3125 32.625C25.1145 32.625 32.25 25.4895 32.25 16.6875C32.25 7.88546 25.1145 0.75 16.3125 0.75C7.51046 0.75 0.375 7.88546 0.375 16.6875C0.375 25.4895 7.51046 32.625 16.3125 32.625ZM8.51718 9.92181C10.0799 9.51563 16.3063 9.51562 16.3063 9.51562C16.3063 9.51562 22.5451 9.51564 24.1078 9.94644C24.9568 10.168 25.6335 10.8448 25.855 11.6941C26.2857 13.2573 26.2734 16.5068 26.2734 16.5068C26.2734 16.5068 26.2734 19.7439 25.855 21.2948C25.6335 22.1563 24.9568 22.8209 24.1078 23.0548C22.5451 23.4609 16.3063 23.4609 16.3063 23.4609C16.3063 23.4609 10.0922 23.4609 8.51718 23.0424C7.66813 22.8086 6.99144 22.1317 6.75764 21.2824C6.35157 19.7439 6.35156 16.4944 6.35156 16.4944C6.35156 16.4944 6.35157 13.2573 6.75764 11.6941C6.99144 10.8448 7.68043 10.1557 8.51718 9.92181ZM19.5057 16.4944L14.3252 13.5036V19.473L19.5057 16.4944Z" fill="white" fill-opacity="0.4"/>
</g>
<defs>
<filter id="filter0_bii_93_53" x="-3.625" y="-3.25" width="39.875" height="39.875" filterUnits="userSpaceOnUse" color-interpolation-filters="sRGB">
<feFlood flood-opacity="0" result="BackgroundImageFix"/>
<feGaussianBlur in="BackgroundImageFix" stdDeviation="2"/>
<feComposite in2="SourceAlpha" operator="in" result="effect1_backgroundBlur_93_53"/>
<feBlend mode="normal" in="SourceGraphic" in2="effect1_backgroundBlur_93_53" result="shape"/>
<feColorMatrix in="SourceAlpha" type="matrix" values="0 0 0 0 0 0 0 0 0 0 0 0 0 0 0 0 0 0 127 0" result="hardAlpha"/>
<feOffset/>
<feGaussianBlur stdDeviation="2"/>
<feComposite in2="hardAlpha" operator="arithmetic" k2="-1" k3="1"/>
<feColorMatrix type="matrix" values="0 0 0 0 1 0 0 0 0 1 0 0 0 0 1 0 0 0 1 0"/>
<feBlend mode="normal" in2="shape" result="effect2_innerShadow_93_53"/>
<feColorMatrix in="SourceAlpha" type="matrix" values="0 0 0 0 0 0 0 0 0 0 0 0 0 0 0 0 0 0 127 0" result="hardAlpha"/>
<feOffset dy="4"/>
<feGaussianBlur stdDeviation="4"/>
<feComposite in2="hardAlpha" operator="arithmetic" k2="-1" k3="1"/>
<feColorMatrix type="matrix" values="0 0 0 0 1 0 0 0 0 1 0 0 0 0 1 0 0 0 1 0"/>
<feBlend mode="normal" in2="effect2_innerShadow_93_53" result="effect3_innerShadow_93_53"/>
</filter>
</defs>
</svg>
