<svg width="85" height="79" viewBox="0 0 85 79" fill="none" xmlns="http://www.w3.org/2000/svg">
<g clip-path="url(#clip0_0_936)">
<path fill-rule="evenodd" clip-rule="evenodd" d="M28.7098 57.0294H37.6874C39.0433 57.0294 40.2333 56.3231 40.8972 55.2617L47.7417 43.8414L36.6269 43.8095L27.4024 28.3671C26.3581 26.5355 25.3624 25.1948 24.7472 24.0655C24.4274 23.5188 24.2412 22.8844 24.2412 22.206C24.2412 21.5277 24.4112 20.9451 24.7067 20.4144C25.7429 18.511 28.2241 13.9062 29.3372 13.2837H77.5119L85 0.0678351L21.25 0L9.18001 20.4144C8.87644 20.9531 8.70239 21.5716 8.70239 22.23C8.70239 22.7966 8.83192 23.3313 9.05858 23.8101H9.04644C9.80335 25.4781 11.216 27.3376 11.8757 28.5107L28.7098 57.0254V57.0294Z" fill="white"/>
<path fill-rule="evenodd" clip-rule="evenodd" d="M42.3421 35.1784L64.3774 35.3141C61.7464 40.4417 49.7493 60.054 46.4221 65.7841H8.28143L0 78.9999H54.0964L74.5612 44.7073C78.6129 37.4729 80.5274 36.9661 78.2364 33.323L71.4405 22.0783L34.7448 21.9666L42.3421 35.1784Z" fill="white"/>
</g>
<defs>
<clipPath id="clip0_0_936">
<rect width="85" height="79" fill="white"/>
</clipPath>
</defs>
</svg>
