<?xml version="1.0" encoding="UTF-8"?>
<!DOCTYPE svg PUBLIC "-//W3C//DTD SVG 1.1//EN" "http://www.w3.org/Graphics/SVG/1.1/DTD/svg11.dtd">
<!-- Creator: CorelDRAW -->
<svg xmlns="http://www.w3.org/2000/svg" xml:space="preserve" width="100.512mm" height="100.512mm" version="1.1" style="shape-rendering:geometricPrecision; text-rendering:geometricPrecision; image-rendering:optimizeQuality; fill-rule:evenodd; clip-rule:evenodd"
viewBox="0 0 212.05 212.05"
 xmlns:xlink="http://www.w3.org/1999/xlink"
 xmlns:xodm="http://www.corel.com/coreldraw/odm/2003">
 <defs>
  <style type="text/css">
   <![CDATA[
    .fil0 {fill:none}
    .fil1 {fill:white}
   ]]>
  </style>
 </defs>
 <g id="Слой_x0020_1">
  <metadata id="CorelCorpID_0Corel-Layer"/>
  <rect class="fil0" width="212.05" height="212.05"/>
  <path class="fil1" d="M105.99 2.15l0 0c0.69,0 1.38,0.01 2.07,0.03l0 0c0.69,0.02 1.38,0.04 2.06,0.08l0 0c0.68,0.03 1.37,0.08 2.05,0.13l0 0c0.68,0.05 1.36,0.11 2.03,0.18l0 0c0.68,0.07 1.35,0.15 2.02,0.23l0 0c0.67,0.09 1.34,0.18 2,0.28l0 0c0.66,0.1 1.33,0.21 1.99,0.33l0 0c0.66,0.12 1.32,0.24 1.97,0.38l0 0c0.65,0.13 1.3,0.28 1.95,0.43 0.65,0.15 1.29,0.31 1.93,0.47l0 0c0.64,0.17 1.28,0.34 1.92,0.52 0.64,0.18 1.27,0.37 1.9,0.56 0.63,0.2 1.25,0.4 1.88,0.61 0.62,0.21 1.24,0.43 1.86,0.65 0.62,0.23 1.23,0.46 1.84,0.7 0.61,0.24 1.21,0.49 1.81,0.74 0.6,0.25 1.2,0.52 1.79,0.78l0 0c0.59,0.27 1.18,0.54 1.77,0.83 0.59,0.28 1.17,0.57 1.74,0.87 0.58,0.3 1.15,0.6 1.72,0.91l0 0c0.57,0.31 1.13,0.62 1.7,0.95 0.56,0.32 1.12,0.65 1.67,0.99 0.55,0.34 1.1,0.68 1.64,1.03 0.54,0.35 1.08,0.7 1.62,1.06 0.53,0.36 1.06,0.73 1.59,1.1 0.53,0.37 1.05,0.75 1.56,1.14 0.52,0.39 1.03,0.78 1.53,1.17 0.51,0.4 1.01,0.8 1.5,1.21 0.5,0.41 0.99,0.82 1.47,1.25l0 0c0.49,0.42 0.97,0.85 1.44,1.28 0.48,0.43 0.95,0.87 1.41,1.31l0 0c0.93,0.89 1.84,1.8 2.73,2.73l0 0c0.44,0.46 0.88,0.94 1.31,1.41 0.43,0.48 0.86,0.96 1.28,1.44l0 0c0.42,0.49 0.84,0.98 1.25,1.47 0.41,0.5 0.81,1 1.21,1.5 0.4,0.51 0.79,1.02 1.17,1.53 0.39,0.52 0.77,1.04 1.14,1.56 0.37,0.53 0.74,1.05 1.1,1.59 0.36,0.53 0.72,1.07 1.06,1.62 0.35,0.54 0.69,1.09 1.03,1.64 0.34,0.55 0.66,1.11 0.99,1.67 0.32,0.56 0.64,1.13 0.95,1.7l0 0c0.31,0.57 0.61,1.14 0.91,1.72 0.3,0.58 0.58,1.16 0.87,1.74 0.28,0.59 0.56,1.17 0.83,1.77l0 0c0.27,0.59 0.53,1.19 0.78,1.79 0.25,0.6 0.5,1.21 0.74,1.81 0.24,0.61 0.47,1.22 0.7,1.84 0.23,0.62 0.44,1.23 0.65,1.86 0.21,0.62 0.41,1.25 0.61,1.88 0.2,0.63 0.38,1.26 0.56,1.9 0.18,0.64 0.35,1.27 0.52,1.92l0 0c0.17,0.64 0.32,1.29 0.47,1.93 0.15,0.65 0.29,1.3 0.42,1.95l0 0c0.13,0.65 0.26,1.31 0.38,1.97l0 0c0.12,0.66 0.23,1.32 0.33,1.99l0 0c0.1,0.66 0.19,1.33 0.28,2l0 0c0.09,0.67 0.16,1.34 0.23,2.02l0 0c0.07,0.68 0.13,1.35 0.18,2.03l0 0c0.05,0.68 0.1,1.36 0.13,2.05l0 0c0.03,0.68 0.06,1.37 0.08,2.06l0 0c0.02,0.69 0.03,1.38 0.03,2.07l0 0c0,0.69 -0.01,1.38 -0.03,2.07l0 0c-0.02,0.69 -0.04,1.38 -0.08,2.06l0 0c-0.03,0.68 -0.08,1.37 -0.13,2.05l0 0c-0.05,0.68 -0.11,1.36 -0.18,2.03l0 0c-0.07,0.68 -0.15,1.35 -0.23,2.02l0 0c-0.09,0.67 -0.18,1.34 -0.28,2l0 0c-0.1,0.66 -0.21,1.33 -0.33,1.99l0 0c-0.12,0.66 -0.24,1.32 -0.38,1.97l0 0c-0.13,0.65 -0.28,1.3 -0.42,1.95l0 0c-0.15,0.65 -0.31,1.29 -0.47,1.93l0 0c-0.17,0.64 -0.34,1.28 -0.52,1.92l0 0c-0.18,0.64 -0.37,1.27 -0.56,1.9l0 0c-0.2,0.63 -0.4,1.25 -0.61,1.88l0 0c-0.21,0.62 -0.43,1.24 -0.65,1.86l0 0c-0.23,0.62 -0.46,1.23 -0.7,1.84 -0.24,0.61 -0.49,1.21 -0.74,1.81l0 0c-0.51,1.2 -1.04,2.39 -1.61,3.56l0 0c-0.28,0.59 -0.57,1.17 -0.87,1.74l0 0c-0.3,0.58 -0.6,1.15 -0.91,1.72l0 0c-0.31,0.57 -0.63,1.13 -0.95,1.69 -0.32,0.56 -0.65,1.12 -0.99,1.67 -0.34,0.55 -0.68,1.1 -1.03,1.64l0 0c-0.35,0.54 -0.7,1.08 -1.06,1.62l0 0c-0.36,0.53 -0.73,1.06 -1.1,1.59 -0.37,0.52 -0.75,1.05 -1.14,1.56l0 0c-0.39,0.52 -0.78,1.03 -1.17,1.53 -0.4,0.51 -0.8,1.01 -1.21,1.5 -0.82,0.99 -1.66,1.96 -2.53,2.92l0 0c-1.3,1.43 -2.64,2.81 -4.04,4.14l0 0c-0.46,0.44 -0.94,0.88 -1.41,1.31 -0.48,0.43 -0.96,0.86 -1.44,1.28l0 0c-0.49,0.42 -0.98,0.84 -1.47,1.25 -0.5,0.41 -1,0.81 -1.5,1.21l0 0c-0.51,0.4 -1.02,0.79 -1.53,1.17 -0.52,0.39 -1.04,0.76 -1.56,1.14 -0.53,0.37 -1.05,0.74 -1.59,1.1 -0.53,0.36 -1.07,0.72 -1.62,1.06 -0.54,0.35 -1.09,0.69 -1.64,1.03 -0.55,0.34 -1.11,0.66 -1.67,0.99 -0.56,0.32 -1.13,0.64 -1.7,0.95l0 0c-0.57,0.31 -1.14,0.61 -1.72,0.91 -0.58,0.3 -1.16,0.58 -1.74,0.87 -0.59,0.28 -1.17,0.56 -1.77,0.83l0 0c-0.59,0.27 -1.19,0.53 -1.79,0.78 -0.6,0.25 -1.21,0.5 -1.81,0.74l0 0c-0.61,0.24 -1.22,0.47 -1.84,0.7 -0.62,0.23 -1.23,0.44 -1.86,0.65 -0.62,0.21 -1.25,0.41 -1.88,0.61 -0.63,0.2 -1.26,0.38 -1.9,0.56 -0.64,0.18 -1.27,0.35 -1.92,0.52l0 0c-0.64,0.17 -1.29,0.32 -1.93,0.47 -0.65,0.15 -1.3,0.29 -1.95,0.43l-0 0c-0.65,0.13 -1.31,0.26 -1.97,0.38l-0 0c-0.66,0.12 -1.32,0.23 -1.99,0.33l0 0c-0.67,0.1 -1.33,0.2 -2,0.28l-0 0c-0.67,0.09 -1.34,0.16 -2.02,0.23l-0 0c-0.68,0.07 -1.35,0.13 -2.03,0.18l0 0c-0.68,0.05 -1.36,0.09 -2.05,0.13l0 0c-0.68,0.03 -1.37,0.06 -2.06,0.08l0 0c-0.69,0.02 -1.38,0.03 -2.07,0.03l0 0c-0.64,0 -1.27,-0.01 -1.9,-0.02 -0.21,-0.01 -0.42,-0.01 -0.63,-0.02 -0.42,-0.01 -0.84,-0.03 -1.26,-0.05 -0.25,-0.01 -0.49,-0.03 -0.74,-0.04 -0.38,-0.02 -0.76,-0.04 -1.14,-0.07 -0.26,-0.02 -0.52,-0.04 -0.78,-0.06 -0.36,-0.03 -0.73,-0.06 -1.09,-0.09 -0.26,-0.02 -0.53,-0.05 -0.79,-0.08 -0.36,-0.04 -0.72,-0.08 -1.09,-0.12 -0.26,-0.03 -0.51,-0.06 -0.77,-0.09 -0.36,-0.05 -0.73,-0.1 -1.09,-0.15 -0.26,-0.04 -0.51,-0.07 -0.76,-0.11 -0.37,-0.06 -0.74,-0.12 -1.11,-0.18 -0.24,-0.04 -0.47,-0.08 -0.71,-0.12 -0.42,-0.07 -0.84,-0.15 -1.26,-0.23 -0.18,-0.03 -0.37,-0.07 -0.55,-0.1 -0.6,-0.12 -1.2,-0.24 -1.8,-0.38 -0.07,-0.02 -0.14,-0.03 -0.21,-0.05 -0.52,-0.12 -1.05,-0.24 -1.57,-0.37 -0.2,-0.05 -0.4,-0.1 -0.6,-0.15 -0.39,-0.1 -0.78,-0.2 -1.17,-0.3 -0.23,-0.06 -0.46,-0.13 -0.7,-0.19 -0.35,-0.1 -0.7,-0.2 -1.05,-0.3 -0.24,-0.07 -0.49,-0.15 -0.73,-0.22 -0.34,-0.1 -0.67,-0.21 -1.01,-0.31 -0.24,-0.08 -0.49,-0.16 -0.73,-0.24 -0.33,-0.11 -0.67,-0.22 -1,-0.34 -0.24,-0.08 -0.48,-0.17 -0.72,-0.25 -0.33,-0.12 -0.67,-0.24 -1,-0.36 -0.23,-0.09 -0.47,-0.17 -0.7,-0.26 -0.35,-0.13 -0.69,-0.27 -1.04,-0.41 -0.21,-0.08 -0.42,-0.17 -0.63,-0.25 -0.4,-0.16 -0.8,-0.33 -1.19,-0.5 -0.15,-0.06 -0.31,-0.13 -0.46,-0.19 -0.55,-0.24 -1.09,-0.48 -1.63,-0.73 -0.1,-0.05 -0.21,-0.1 -0.31,-0.15 -0.44,-0.2 -0.87,-0.41 -1.31,-0.62 -0.19,-0.09 -0.38,-0.19 -0.57,-0.29 -0.34,-0.17 -0.68,-0.34 -1.02,-0.51 -0.22,-0.11 -0.43,-0.23 -0.64,-0.34 -0.31,-0.17 -0.63,-0.33 -0.94,-0.5 -0.22,-0.12 -0.44,-0.24 -0.66,-0.36 -0.3,-0.17 -0.6,-0.34 -0.9,-0.51 -0.22,-0.13 -0.44,-0.26 -0.66,-0.39 -0.29,-0.17 -0.58,-0.35 -0.88,-0.52 -0.22,-0.13 -0.44,-0.27 -0.66,-0.4 -0.29,-0.18 -0.59,-0.37 -0.88,-0.55 -0.21,-0.13 -0.42,-0.26 -0.62,-0.4 -0.31,-0.2 -0.61,-0.4 -0.91,-0.6 -0.19,-0.13 -0.38,-0.25 -0.57,-0.38 -0.35,-0.24 -0.7,-0.49 -1.05,-0.73 -0.13,-0.09 -0.26,-0.18 -0.39,-0.28 -0.48,-0.34 -0.95,-0.69 -1.42,-1.04 -0.13,-0.1 -0.25,-0.19 -0.38,-0.29 -0.34,-0.26 -0.69,-0.52 -1.02,-0.78 -0.18,-0.14 -0.36,-0.28 -0.54,-0.43 -0.28,-0.23 -0.57,-0.45 -0.85,-0.68 -0.19,-0.15 -0.37,-0.31 -0.56,-0.46 -0.27,-0.22 -0.54,-0.45 -0.8,-0.68 -0.19,-0.16 -0.38,-0.33 -0.57,-0.49 -0.26,-0.22 -0.51,-0.45 -0.76,-0.67 -0.19,-0.17 -0.38,-0.34 -0.57,-0.51 -0.25,-0.23 -0.5,-0.46 -0.75,-0.69 -0.19,-0.17 -0.37,-0.35 -0.55,-0.52 -0.25,-0.24 -0.49,-0.47 -0.74,-0.71 -0.18,-0.17 -0.36,-0.35 -0.53,-0.52 -0.26,-0.26 -0.51,-0.52 -0.77,-0.78 -0.16,-0.16 -0.31,-0.32 -0.47,-0.48 -0.3,-0.31 -0.59,-0.62 -0.88,-0.93 -0.11,-0.12 -0.22,-0.24 -0.34,-0.36 -0.4,-0.43 -0.79,-0.86 -1.17,-1.3 -0.12,-0.13 -0.23,-0.27 -0.35,-0.4 -0.27,-0.31 -0.54,-0.62 -0.8,-0.93 -0.15,-0.18 -0.3,-0.36 -0.45,-0.54 -0.23,-0.27 -0.46,-0.55 -0.68,-0.83 -0.15,-0.19 -0.31,-0.38 -0.46,-0.57 -0.22,-0.27 -0.43,-0.54 -0.64,-0.82 -0.15,-0.2 -0.31,-0.4 -0.46,-0.6 -0.2,-0.27 -0.41,-0.54 -0.61,-0.81 -0.15,-0.21 -0.3,-0.41 -0.45,-0.62 -0.2,-0.28 -0.4,-0.55 -0.59,-0.83 -0.15,-0.21 -0.29,-0.41 -0.43,-0.62 -0.2,-0.29 -0.4,-0.58 -0.59,-0.88 -0.13,-0.2 -0.27,-0.39 -0.4,-0.59 -0.21,-0.32 -0.41,-0.64 -0.62,-0.96 -0.11,-0.18 -0.23,-0.36 -0.34,-0.54 -0.26,-0.42 -0.52,-0.84 -0.77,-1.26 -0.05,-0.08 -0.1,-0.17 -0.15,-0.25 -0.3,-0.51 -0.6,-1.02 -0.9,-1.54 -0.08,-0.14 -0.15,-0.28 -0.23,-0.42 -0.21,-0.38 -0.42,-0.76 -0.63,-1.14 -0.1,-0.19 -0.2,-0.38 -0.3,-0.57 -0.18,-0.33 -0.35,-0.67 -0.52,-1.01 -0.11,-0.21 -0.21,-0.42 -0.32,-0.64 -0.16,-0.32 -0.32,-0.65 -0.48,-0.98 -0.1,-0.22 -0.21,-0.44 -0.31,-0.66 -0.15,-0.33 -0.3,-0.65 -0.45,-0.98 -0.1,-0.22 -0.2,-0.44 -0.29,-0.65 -0.15,-0.34 -0.3,-0.68 -0.44,-1.02 -0.09,-0.21 -0.18,-0.42 -0.27,-0.64 -0.15,-0.35 -0.29,-0.71 -0.43,-1.06 -0.08,-0.2 -0.16,-0.41 -0.24,-0.61 -0.16,-0.4 -0.31,-0.8 -0.46,-1.2 -0.06,-0.16 -0.12,-0.32 -0.18,-0.48 -0.42,-1.14 -0.81,-2.3 -1.17,-3.46 -0.04,-0.12 -0.07,-0.25 -0.11,-0.37 -0.14,-0.45 -0.28,-0.91 -0.41,-1.36 -0.05,-0.19 -0.11,-0.38 -0.16,-0.57 -0.11,-0.4 -0.22,-0.8 -0.33,-1.2 -0.05,-0.2 -0.1,-0.41 -0.16,-0.61 -0.1,-0.39 -0.2,-0.78 -0.29,-1.18 -0.05,-0.21 -0.1,-0.43 -0.15,-0.64 -0.05,-0.2 -0.09,-0.39 -0.14,-0.59l0.01 0c-0.9,-4.06 -1.5,-8.24 -1.76,-12.5l38.01 0c1.23,10.55 6.33,19.92 13.84,26.65l0.01 0.01c0.7,0.62 1.42,1.23 2.15,1.8l0.04 0.03c0.23,0.18 0.45,0.35 0.69,0.52l0.07 0.05c0.74,0.55 1.49,1.08 2.26,1.58l0.11 0.07c0.22,0.14 0.45,0.29 0.67,0.43l0.11 0.07c0.52,0.32 1.05,0.63 1.59,0.93l0.06 0.03c0.24,0.13 0.48,0.26 0.72,0.39l0.15 0.08c0.22,0.12 0.45,0.23 0.67,0.35l0.14 0.07c0.54,0.27 1.09,0.53 1.64,0.77l0.14 0.06c0.22,0.1 0.44,0.19 0.67,0.29l0.22 0.09c0.22,0.09 0.45,0.18 0.68,0.27l0.15 0.06c0.56,0.22 1.12,0.42 1.7,0.62l0.21 0.07c0.21,0.07 0.43,0.14 0.64,0.21l0.25 0.08c0.23,0.07 0.46,0.14 0.69,0.21l0.17 0.05c0.29,0.08 0.59,0.16 0.88,0.24l0.1 0.03c0.25,0.07 0.5,0.13 0.76,0.19 0.09,0.02 0.19,0.04 0.28,0.07 0.2,0.05 0.41,0.09 0.61,0.14 0.09,0.02 0.19,0.04 0.28,0.06 0.24,0.05 0.48,0.1 0.71,0.14 0.06,0.01 0.11,0.02 0.17,0.03 0.3,0.06 0.59,0.11 0.89,0.16 0.07,0.01 0.14,0.02 0.21,0.03 0.23,0.04 0.45,0.07 0.68,0.1 0.1,0.01 0.21,0.03 0.31,0.04 0.21,0.03 0.42,0.06 0.63,0.08 0.09,0.01 0.18,0.02 0.28,0.03 0.27,0.03 0.54,0.06 0.81,0.09l0.1 0.01c0.3,0.03 0.61,0.05 0.92,0.08 0.08,0.01 0.17,0.01 0.25,0.02 0.22,0.01 0.45,0.03 0.67,0.04 0.11,0.01 0.21,0.01 0.32,0.01 0.21,0.01 0.42,0.02 0.63,0.02 0.1,0 0.2,0.01 0.31,0.01 0.31,0.01 0.61,0.01 0.92,0.01l0 0c0.37,0 0.73,-0 1.1,-0.01l0 0c0.36,-0.01 0.73,-0.02 1.09,-0.04l0 0c0.36,-0.02 0.72,-0.04 1.08,-0.07l0 0c0.36,-0.03 0.72,-0.06 1.07,-0.1l0 0c0.36,-0.04 0.71,-0.08 1.07,-0.12l0 0c0.35,-0.05 0.71,-0.09 1.06,-0.15l0 0c0.35,-0.05 0.7,-0.11 1.05,-0.17 0.35,-0.06 0.7,-0.13 1.04,-0.2l0 0c0.35,-0.07 0.69,-0.15 1.03,-0.22 0.34,-0.08 0.68,-0.16 1.02,-0.25l0 0c0.34,-0.09 0.68,-0.18 1.01,-0.27 0.34,-0.1 0.67,-0.19 1,-0.3 0.33,-0.1 0.66,-0.21 0.99,-0.32 0.33,-0.11 0.66,-0.23 0.98,-0.35 0.33,-0.12 0.65,-0.24 0.97,-0.37 0.32,-0.13 0.64,-0.26 0.96,-0.39 0.32,-0.13 0.63,-0.27 0.95,-0.41l0 0c0.31,-0.14 0.62,-0.29 0.93,-0.44 0.31,-0.15 0.62,-0.3 0.92,-0.46 0.31,-0.16 0.61,-0.32 0.91,-0.48 0.3,-0.16 0.6,-0.33 0.9,-0.5 0.3,-0.17 0.59,-0.34 0.88,-0.52 0.29,-0.18 0.58,-0.36 0.87,-0.54l0 -0c0.29,-0.18 0.57,-0.37 0.85,-0.56 0.28,-0.19 0.56,-0.39 0.84,-0.58l0 0c0.28,-0.2 0.55,-0.4 0.82,-0.6 0.27,-0.2 0.54,-0.41 0.81,-0.62l0 -0c0.53,-0.42 1.06,-0.85 1.57,-1.3 0.51,-0.44 1.02,-0.9 1.51,-1.37 0.25,-0.23 0.49,-0.47 0.73,-0.71 0.24,-0.24 0.48,-0.48 0.71,-0.73l0 0c0.47,-0.49 0.93,-0.99 1.37,-1.51l0 -0c0.22,-0.26 0.44,-0.52 0.66,-0.78l0 -0c0.22,-0.26 0.43,-0.53 0.64,-0.79 0.21,-0.27 0.42,-0.54 0.62,-0.81l0 -0c0.2,-0.27 0.4,-0.55 0.6,-0.82l0 -0c0.2,-0.28 0.39,-0.56 0.58,-0.84l0 0c0.19,-0.28 0.38,-0.57 0.56,-0.85l0 0c0.18,-0.29 0.36,-0.58 0.54,-0.87l0 0c0.18,-0.29 0.35,-0.59 0.52,-0.88 0.17,-0.3 0.34,-0.59 0.5,-0.9l0 -0c0.16,-0.3 0.32,-0.6 0.48,-0.91l0 -0c0.16,-0.31 0.31,-0.61 0.46,-0.92l0 0c0.15,-0.31 0.29,-0.62 0.44,-0.93l0 -0c0.14,-0.31 0.28,-0.63 0.41,-0.95l0 -0c0.13,-0.32 0.26,-0.64 0.39,-0.96l0 -0c0.13,-0.32 0.25,-0.64 0.37,-0.97l0 0c0.12,-0.33 0.23,-0.65 0.35,-0.98l0 -0c0.11,-0.33 0.22,-0.66 0.32,-0.99l0 -0c0.1,-0.33 0.2,-0.67 0.3,-1l0 -0c0.1,-0.34 0.19,-0.67 0.27,-1.01 0.09,-0.34 0.17,-0.68 0.25,-1.02l0 -0c0.08,-0.34 0.15,-0.69 0.22,-1.03l0 -0c0.07,-0.35 0.14,-0.69 0.2,-1.04l0 -0c0.06,-0.35 0.12,-0.7 0.17,-1.05l0 -0c0.05,-0.35 0.1,-0.7 0.15,-1.06 0.05,-0.35 0.09,-0.71 0.12,-1.07l0 0c0.04,-0.36 0.07,-0.72 0.1,-1.07l0 -0c0.03,-0.36 0.05,-0.72 0.07,-1.08l0 -0c0.02,-0.36 0.03,-0.72 0.04,-1.09l0 -0c0.01,-0.36 0.01,-0.73 0.01,-1.1l0 -0c0,-0.37 -0,-0.73 -0.01,-1.1l0 0c-0.01,-0.36 -0.02,-0.73 -0.04,-1.09l0 0c-0.02,-0.36 -0.04,-0.72 -0.07,-1.08l0 0c-0.03,-0.36 -0.06,-0.72 -0.1,-1.07l0 -0c-0.04,-0.36 -0.08,-0.71 -0.12,-1.07l0 -0c-0.04,-0.35 -0.09,-0.71 -0.15,-1.06l0 -0c-0.05,-0.35 -0.11,-0.7 -0.17,-1.05 -0.06,-0.35 -0.13,-0.7 -0.2,-1.04l0 -0c-0.07,-0.35 -0.15,-0.69 -0.22,-1.03 -0.08,-0.34 -0.16,-0.68 -0.25,-1.02l0 -0c-0.09,-0.34 -0.18,-0.68 -0.27,-1.01 -0.1,-0.34 -0.19,-0.67 -0.3,-1 -0.1,-0.33 -0.21,-0.66 -0.32,-0.99 -0.11,-0.33 -0.23,-0.66 -0.35,-0.98 -0.12,-0.33 -0.24,-0.65 -0.37,-0.97 -0.13,-0.32 -0.26,-0.64 -0.39,-0.96 -0.13,-0.32 -0.27,-0.63 -0.41,-0.95l0 0c-0.14,-0.31 -0.29,-0.63 -0.44,-0.93 -0.15,-0.31 -0.3,-0.62 -0.46,-0.92 -0.16,-0.31 -0.32,-0.61 -0.48,-0.91 -0.16,-0.3 -0.33,-0.6 -0.5,-0.9 -0.17,-0.3 -0.34,-0.59 -0.52,-0.88 -0.18,-0.29 -0.36,-0.58 -0.54,-0.87 -0.18,-0.29 -0.37,-0.57 -0.56,-0.85 -0.19,-0.28 -0.39,-0.56 -0.58,-0.84l0 -0c-0.2,-0.28 -0.4,-0.55 -0.6,-0.82 -0.2,-0.27 -0.41,-0.54 -0.62,-0.81 -0.21,-0.27 -0.42,-0.53 -0.64,-0.79l0 -0c-0.22,-0.26 -0.44,-0.52 -0.66,-0.78 -0.44,-0.51 -0.9,-1.02 -1.37,-1.51 -0.23,-0.25 -0.47,-0.49 -0.71,-0.73 -0.24,-0.24 -0.48,-0.48 -0.73,-0.71 -0.49,-0.47 -0.99,-0.93 -1.51,-1.37 -0.26,-0.22 -0.52,-0.44 -0.78,-0.66l-0 0c-0.26,-0.22 -0.53,-0.43 -0.79,-0.64 -0.27,-0.21 -0.54,-0.42 -0.81,-0.62 -0.27,-0.2 -0.55,-0.4 -0.82,-0.6l-0 0c-0.28,-0.2 -0.56,-0.39 -0.84,-0.58 -0.28,-0.19 -0.57,-0.38 -0.85,-0.56 -0.29,-0.18 -0.58,-0.36 -0.87,-0.54 -0.29,-0.18 -0.59,-0.35 -0.88,-0.52 -0.3,-0.17 -0.59,-0.34 -0.9,-0.5 -0.3,-0.16 -0.6,-0.32 -0.91,-0.48 -0.31,-0.16 -0.61,-0.31 -0.92,-0.46 -0.31,-0.15 -0.62,-0.29 -0.93,-0.44l-0 0c-0.31,-0.14 -0.63,-0.28 -0.95,-0.41 -0.32,-0.13 -0.64,-0.26 -0.96,-0.39 -0.32,-0.13 -0.64,-0.25 -0.97,-0.37 -0.33,-0.12 -0.65,-0.23 -0.98,-0.35 -0.33,-0.11 -0.66,-0.22 -0.99,-0.32 -0.33,-0.1 -0.67,-0.2 -1,-0.3 -0.34,-0.1 -0.67,-0.19 -1.01,-0.27l-0 0c-0.34,-0.09 -0.68,-0.17 -1.02,-0.25 -0.34,-0.08 -0.69,-0.15 -1.03,-0.22l0 0c-0.35,-0.07 -0.69,-0.14 -1.04,-0.2 -0.35,-0.06 -0.7,-0.12 -1.05,-0.17l-0 0c-0.35,-0.05 -0.7,-0.1 -1.06,-0.15l0 0c-0.35,-0.04 -0.71,-0.09 -1.07,-0.12l-0 0c-0.36,-0.04 -0.71,-0.07 -1.07,-0.1l-0 0c-0.36,-0.03 -0.72,-0.05 -1.08,-0.07l-0 0c-0.36,-0.02 -0.72,-0.03 -1.09,-0.04l-0 0c-0.36,-0.01 -0.73,-0.01 -1.1,-0.01l0 0c-0.19,0 -0.38,0 -0.57,0l-0.17 0c-0.13,0 -0.26,0 -0.39,0.01l-0.21 0.01c-0.12,0 -0.23,0.01 -0.35,0.01l-0.23 0.01c-0.11,0 -0.22,0.01 -0.33,0.02l-0.24 0.01c-0.11,0.01 -0.21,0.01 -0.32,0.02l-0.23 0.02c-0.12,0.01 -0.24,0.02 -0.36,0.03l-0.19 0.01c-0.14,0.01 -0.27,0.02 -0.41,0.04l-0.14 0.01c-0.38,0.04 -0.75,0.08 -1.12,0.12l-0.06 0.01c-0.16,0.02 -0.32,0.04 -0.48,0.06l-0.18 0.03c-0.12,0.02 -0.24,0.03 -0.36,0.05l-0.2 0.03c-0.12,0.02 -0.23,0.04 -0.35,0.05l-0.2 0.03c-0.12,0.02 -0.24,0.04 -0.36,0.06l-0.18 0.03c-0.12,0.02 -0.25,0.05 -0.37,0.07l-0.17 0.03c-0.14,0.03 -0.29,0.06 -0.43,0.09l-0.1 0.02c-0.55,0.11 -1.09,0.24 -1.62,0.37l-0.11 0.03c-0.14,0.04 -0.28,0.07 -0.43,0.11l-0.13 0.03c-0.14,0.04 -0.27,0.07 -0.41,0.11l-0.11 0.03c-0.15,0.04 -0.29,0.08 -0.44,0.12l-0.09 0.03c-0.15,0.04 -0.3,0.09 -0.45,0.14l-0.08 0.02c-0.89,0.27 -1.76,0.57 -2.62,0.9l-0.04 0.01c-0.16,0.06 -0.32,0.12 -0.48,0.19l-0.04 0.02c-0.16,0.06 -0.32,0.13 -0.48,0.19l-0.03 0.01c-0.16,0.07 -0.32,0.13 -0.48,0.2l-0.03 0.01c-2.56,1.1 -4.99,2.44 -7.26,4l-0.01 0.01c-1.21,0.83 -2.38,1.73 -3.49,2.68l-0.01 0c-0.56,0.48 -1.12,0.98 -1.65,1.49l25.02 0 0 24.5 -37.84 0 -13.79 0 -24.32 0 -0.18 0 0 -24.5 0 -51.63 24.5 0 0 24.67 0.1 -0.09c0.11,-0.11 0.22,-0.21 0.33,-0.32 0.23,-0.22 0.46,-0.43 0.69,-0.65 0.1,-0.1 0.21,-0.19 0.31,-0.29 0.27,-0.25 0.54,-0.49 0.81,-0.74 0.12,-0.11 0.24,-0.22 0.36,-0.32 0.29,-0.26 0.58,-0.51 0.87,-0.76 0.1,-0.09 0.2,-0.17 0.31,-0.26 0.23,-0.2 0.46,-0.39 0.69,-0.58 0.12,-0.1 0.25,-0.2 0.37,-0.3 0.29,-0.24 0.58,-0.48 0.88,-0.71 0.13,-0.1 0.26,-0.21 0.39,-0.31 0.22,-0.17 0.44,-0.34 0.66,-0.51 0.15,-0.11 0.29,-0.23 0.44,-0.34 0.28,-0.21 0.56,-0.42 0.83,-0.63 0.14,-0.1 0.28,-0.21 0.42,-0.31 0.27,-0.19 0.53,-0.39 0.8,-0.58 0.16,-0.11 0.31,-0.22 0.47,-0.33 0.24,-0.17 0.47,-0.33 0.71,-0.49 0.14,-0.1 0.28,-0.19 0.43,-0.29 0.31,-0.21 0.63,-0.42 0.94,-0.63 0.13,-0.09 0.27,-0.17 0.4,-0.26 0.24,-0.16 0.49,-0.31 0.74,-0.47 0.13,-0.08 0.25,-0.16 0.38,-0.24 0.32,-0.2 0.65,-0.4 0.97,-0.6 0.15,-0.09 0.29,-0.18 0.44,-0.26 0.28,-0.17 0.56,-0.33 0.84,-0.49 0.16,-0.09 0.32,-0.18 0.48,-0.27 0.27,-0.15 0.54,-0.31 0.81,-0.46 0.14,-0.08 0.29,-0.16 0.43,-0.24 0.34,-0.19 0.68,-0.37 1.03,-0.55 0.13,-0.07 0.26,-0.13 0.38,-0.2 0.27,-0.14 0.54,-0.28 0.81,-0.41 0.13,-0.07 0.27,-0.14 0.4,-0.2 0.35,-0.18 0.7,-0.35 1.06,-0.52l0.41 -0.19c0.31,-0.15 0.62,-0.29 0.93,-0.43l0.41 -0.18c0.32,-0.15 0.65,-0.29 0.97,-0.43 0.13,-0.06 0.27,-0.12 0.4,-0.18 0.37,-0.16 0.74,-0.32 1.12,-0.47 0.12,-0.05 0.24,-0.1 0.36,-0.14 0.3,-0.12 0.61,-0.24 0.91,-0.36 0.13,-0.05 0.25,-0.1 0.38,-0.15 0.38,-0.15 0.76,-0.29 1.14,-0.43 0.13,-0.05 0.26,-0.09 0.38,-0.14 0.34,-0.12 0.68,-0.24 1.02,-0.36 0.08,-0.03 0.16,-0.06 0.25,-0.09 0.4,-0.14 0.8,-0.27 1.2,-0.4l0.39 -0.12c0.4,-0.13 0.8,-0.25 1.2,-0.38 0.1,-0.03 0.19,-0.06 0.29,-0.08 0.35,-0.1 0.7,-0.21 1.05,-0.31 0.11,-0.03 0.23,-0.06 0.34,-0.1 0.41,-0.11 0.82,-0.23 1.24,-0.34l0.33 -0.09c0.38,-0.1 0.75,-0.19 1.13,-0.28l0.22 -0.05c0.43,-0.1 0.86,-0.2 1.28,-0.29l0.35 -0.08c0.43,-0.09 0.86,-0.18 1.3,-0.27l0.2 -0.04c0.39,-0.08 0.79,-0.15 1.18,-0.22 0.11,-0.02 0.21,-0.04 0.32,-0.06 0.44,-0.08 0.87,-0.15 1.31,-0.22l0.29 -0.05c0.4,-0.06 0.8,-0.12 1.21,-0.18l0.22 -0.03c0.45,-0.06 0.9,-0.12 1.35,-0.17l0.32 -0.04c0.46,-0.05 0.92,-0.1 1.37,-0.15l0.1 -0.01c0.44,-0.04 0.88,-0.08 1.32,-0.12l0.3 -0.02c0.46,-0.04 0.92,-0.07 1.38,-0.09l0.26 -0.01c0.42,-0.02 0.83,-0.04 1.25,-0.06l0.25 -0.01c0.46,-0.02 0.93,-0.03 1.39,-0.04l0.31 -0.01c0.48,-0.01 0.96,-0.01 1.44,-0.01z"/>
  <path class="fil1" d="M44.05 174.18l86.07 0 0 0c20.83,0 37.87,17.04 37.87,37.87l0 0 -86.07 0 0 -0 -0 0c-20.83,0 -37.87,-17.04 -37.87,-37.87z"/>
 </g>
</svg>
