<svg width="1208" height="378" viewBox="0 0 1208 378" fill="none" xmlns="http://www.w3.org/2000/svg">
<mask id="mask0_0_69" style="mask-type:alpha" maskUnits="userSpaceOnUse" x="12" y="0" width="1179" height="370">
<path d="M180.24 370C37.7402 370 12.7402 247.5 12.7402 247.5H113.74C117.74 260 135.24 285 180.24 285C214.24 285 227.74 272.5 227.74 260C227.74 240 197.74 232 160.24 223C100.24 208.5 25.2402 185 25.2402 110C25.2402 52.5 77.7402 -1.43051e-05 170.24 -1.43051e-05C305.24 -1.43051e-05 322.74 110 322.74 110H221.74C217.74 100 205.24 85 170.24 85C138.24 85 127.74 95.5 127.74 105C127.74 122.5 157.74 133 195.24 142C255.24 156.5 330.24 180 330.24 255C330.24 315 280.24 370 180.24 370ZM180.24 352.5C268.74 352.5 312.74 306 312.74 255C312.74 192.5 245.74 172 191.24 159C146.74 148.5 110.24 135 110.24 105C110.24 86.5 126.24 67.5 170.24 67.5C202.74 67.5 222.74 80 230.74 92.5H298.74C285.24 62.5 255.24 17.5 170.24 17.5C87.7402 17.5 42.7402 62.5 42.7402 110C42.7402 172.5 109.24 192.5 163.74 206C208.24 216.5 245.24 227.5 245.24 260C245.24 282.5 225.24 302.5 180.24 302.5C130.24 302.5 107.74 275 102.74 265H37.2402C52.7402 300 90.2402 352.5 180.24 352.5ZM377.955 360V9.99998H512.955L583.455 185H589.955L660.455 9.99998H795.455V360H697.955V170L706.455 120H703.455L637.955 280H535.455L469.955 120H466.955L475.455 170V360H377.955ZM395.455 342.5H457.955V170L447.455 102.5H481.455L546.955 262.5H626.455L691.955 102.5H725.955L715.455 170V342.5H777.955V27.5H671.955L601.455 202.5H571.955L501.455 27.5H395.455V342.5ZM860.377 360V9.99998H995.877C1112.88 9.99998 1190.38 87.5 1190.38 185C1190.38 282.5 1112.88 360 995.877 360H860.377ZM877.877 342.5H995.877C1102.88 342.5 1172.88 272.5 1172.88 185C1172.88 97.5 1102.88 27.5 995.877 27.5H877.877V342.5ZM940.377 287.5V82.5H995.377C1065.38 82.5 1105.38 122.5 1105.38 185C1105.38 247.5 1065.38 287.5 995.377 287.5H940.377ZM957.877 270H995.377C1055.38 270 1087.88 237.5 1087.88 185C1087.88 132.5 1055.38 100 995.377 100H957.877V270Z" fill="white"/>
<path d="M12.7402 247.5V246.5H11.5155L11.7604 247.7L12.7402 247.5ZM113.74 247.5L114.693 247.195L114.47 246.5H113.74V247.5ZM160.24 223L160.005 223.972L160.007 223.972L160.24 223ZM322.74 110V111H323.912L323.728 109.843L322.74 110ZM221.74 110L220.812 110.371L221.063 111H221.74V110ZM195.24 142L195.475 141.028L195.474 141.028L195.24 142ZM191.24 159L191.472 158.027L191.47 158.027L191.24 159ZM230.74 92.5L229.898 93.039L230.193 93.5H230.74V92.5ZM298.74 92.5V93.5H300.287L299.652 92.0896L298.74 92.5ZM163.74 206L163.5 206.971L163.511 206.973L163.74 206ZM102.74 265L103.635 264.553L103.358 264H102.74V265ZM37.2402 265V264H35.7037L36.3259 265.405L37.2402 265ZM180.24 369C109.328 369 67.7322 338.542 43.8391 308.132C31.8805 292.912 24.3461 277.689 19.8022 266.271C17.5307 260.563 16.0079 255.809 15.0539 252.488C14.577 250.827 14.2424 249.524 14.0275 248.64C13.9201 248.197 13.8427 247.86 13.7924 247.634C13.7672 247.521 13.7488 247.436 13.7369 247.38C13.7309 247.352 13.7266 247.331 13.7238 247.318C13.7224 247.311 13.7214 247.306 13.7207 247.303C13.7204 247.302 13.7203 247.301 13.7201 247.3C13.72 247.3 13.72 247.3 12.7402 247.5C11.7604 247.7 11.7606 247.701 11.7609 247.702C11.7612 247.704 11.7616 247.705 11.762 247.708C11.7629 247.712 11.7642 247.718 11.7659 247.727C11.7693 247.743 11.7743 247.767 11.7809 247.797C11.7941 247.859 11.8137 247.95 11.8402 248.069C11.8932 248.307 11.9735 248.657 12.084 249.112C12.305 250.022 12.6466 251.351 13.1316 253.04C14.1015 256.417 15.6451 261.234 17.9439 267.01C22.5406 278.561 30.1625 293.963 42.2664 309.368C66.4982 340.208 108.652 371 180.24 371V369ZM12.7402 248.5H113.74V246.5H12.7402V248.5ZM112.788 247.805C116.916 260.705 134.79 286 180.24 286V284C135.69 284 118.565 259.295 114.693 247.195L112.788 247.805ZM180.24 286C197.344 286 209.425 282.859 217.264 278.039C225.131 273.203 228.74 266.657 228.74 260H226.74C226.74 265.843 223.6 271.797 216.217 276.336C208.806 280.891 197.136 284 180.24 284V286ZM228.74 260C228.74 249.374 220.732 242.126 208.472 236.467C196.177 230.793 179.199 226.522 160.474 222.028L160.007 223.972C178.782 228.478 195.553 232.707 207.634 238.283C219.749 243.874 226.74 250.626 226.74 260H228.74ZM160.475 222.028C130.474 214.778 96.877 205.309 70.7852 188.349C44.7476 171.425 26.2402 147.084 26.2402 110H24.2402C24.2402 147.916 43.2328 172.825 69.6952 190.026C96.1035 207.191 130.006 216.722 160.005 223.972L160.475 222.028ZM26.2402 110C26.2402 53.2259 78.1012 0.999986 170.24 0.999986V-1.00001C77.3793 -1.00001 24.2402 51.7741 24.2402 110H26.2402ZM170.24 0.999986C237.42 0.999986 275.257 28.348 296.324 55.6114C306.872 69.2615 313.233 82.9145 316.957 93.1542C318.818 98.2731 320.019 102.535 320.754 105.513C321.121 107.002 321.372 108.169 321.53 108.961C321.609 109.357 321.665 109.659 321.702 109.861C321.72 109.961 321.733 110.037 321.741 110.087C321.745 110.112 321.748 110.13 321.75 110.142C321.751 110.148 321.752 110.152 321.752 110.154C321.752 110.156 321.753 110.156 321.753 110.157C321.753 110.157 321.753 110.157 322.74 110C323.728 109.843 323.728 109.842 323.727 109.84C323.727 109.839 323.727 109.838 323.727 109.836C323.726 109.831 323.725 109.826 323.724 109.818C323.721 109.803 323.718 109.782 323.713 109.754C323.704 109.698 323.69 109.616 323.67 109.508C323.632 109.294 323.573 108.978 323.491 108.569C323.327 107.749 323.07 106.553 322.696 105.034C321.946 101.996 320.725 97.6644 318.836 92.4708C315.06 82.0855 308.609 68.2384 297.907 54.3885C276.474 26.652 238.061 -1.00001 170.24 -1.00001V0.999986ZM322.74 109H221.74V111H322.74V109ZM222.669 109.629C220.598 104.451 216.343 98.0253 208.145 92.902C199.952 87.7813 187.883 84 170.24 84V86C187.598 86 199.278 89.7187 207.085 94.598C214.888 99.4746 218.883 105.549 220.812 110.371L222.669 109.629ZM170.24 84C154.153 84 143.329 86.6357 136.491 90.5708C129.619 94.5259 126.74 99.8259 126.74 105H128.74C128.74 100.674 131.112 95.974 137.489 92.3042C143.901 88.6143 154.328 86 170.24 86V84ZM126.74 105C126.74 114.395 134.784 121.64 146.99 127.586C159.283 133.576 176.251 138.471 195.007 142.972L195.474 141.028C176.729 136.529 159.947 131.674 147.866 125.788C135.696 119.86 128.74 113.105 128.74 105H126.74ZM195.005 142.972C225.006 150.222 258.603 159.691 284.695 176.651C310.733 193.575 329.24 217.916 329.24 255H331.24C331.24 217.084 312.248 192.175 285.785 174.974C259.377 157.809 225.474 148.278 195.475 141.028L195.005 142.972ZM329.24 255C329.24 284.71 316.867 313.18 292.093 334.238C267.312 355.301 230.06 369 180.24 369V371C230.421 371 268.168 357.199 293.388 335.762C318.614 314.32 331.24 285.29 331.24 255H329.24ZM180.24 353.5C224.66 353.5 258.027 341.83 280.31 323.65C302.602 305.462 313.74 280.804 313.74 255H311.74C311.74 280.196 300.878 304.288 279.046 322.1C257.203 339.92 224.32 351.5 180.24 351.5V353.5ZM313.74 255C313.74 223.303 296.714 202.272 272.953 187.587C249.239 172.931 218.72 164.527 191.472 158.027L191.008 159.973C218.261 166.473 248.491 174.819 271.902 189.288C295.267 203.728 311.74 224.197 311.74 255H313.74ZM191.47 158.027C169.226 152.778 149.101 146.804 134.551 138.445C120.021 130.098 111.24 119.495 111.24 105H109.24C109.24 120.505 118.71 131.652 133.555 140.18C148.379 148.696 168.754 154.722 191.011 159.973L191.47 158.027ZM111.24 105C111.24 96.062 115.094 86.9863 124.337 80.115C133.606 73.2241 148.369 68.5 170.24 68.5V66.5C148.112 66.5 132.874 71.2759 123.144 78.51C113.386 85.7636 109.24 95.438 109.24 105H111.24ZM170.24 68.5C202.504 68.5 222.132 80.9042 229.898 93.039L231.583 91.9609C223.349 79.0958 202.977 66.5 170.24 66.5V68.5ZM230.74 93.5H298.74V91.5H230.74V93.5ZM299.652 92.0896C292.865 77.0081 281.903 58.0923 261.906 42.9527C241.898 27.8041 212.928 16.5 170.24 16.5V18.5C212.552 18.5 241.083 29.6958 260.699 44.5473C280.327 59.4076 291.115 77.9918 297.828 92.9104L299.652 92.0896ZM170.24 16.5C87.4114 16.5 41.7402 61.7481 41.7402 110H43.7402C43.7402 63.2519 88.0691 18.5 170.24 18.5V16.5ZM41.7402 110C41.7402 141.695 58.6397 162.602 82.2766 177.225C105.864 191.818 136.259 200.223 163.5 206.971L163.981 205.029C136.721 198.277 106.616 189.932 83.3289 175.525C60.0908 161.148 43.7402 140.805 43.7402 110H41.7402ZM163.511 206.973C185.78 212.228 206.022 217.577 220.697 225.627C235.322 233.649 244.24 244.245 244.24 260H246.24C246.24 243.255 236.658 232.101 221.659 223.873C206.708 215.673 186.2 210.272 163.97 205.027L163.511 206.973ZM244.24 260C244.24 270.925 239.397 281.254 229.023 288.882C218.624 296.528 202.606 301.5 180.24 301.5V303.5C202.875 303.5 219.357 298.472 230.208 290.493C241.083 282.496 246.24 271.575 246.24 260H244.24ZM180.24 301.5C130.654 301.5 108.482 274.247 103.635 264.553L101.846 265.447C106.999 275.753 129.826 303.5 180.24 303.5V301.5ZM102.74 264H37.2402V266H102.74V264ZM36.3259 265.405C44.1195 283.003 57.4574 305.033 80.1899 322.665C102.937 340.308 135.03 353.5 180.24 353.5V351.5C135.45 351.5 103.794 338.442 81.4156 321.085C59.0231 303.717 45.8609 281.997 38.1546 264.595L36.3259 265.405ZM377.955 360H376.955V361H377.955V360ZM377.955 9.99998V8.99998H376.955V9.99998H377.955ZM512.955 9.99998L513.883 9.6263L513.63 8.99998H512.955V9.99998ZM583.455 185L582.528 185.374L582.78 186H583.455V185ZM589.955 185V186H590.63L590.883 185.374L589.955 185ZM660.455 9.99998V8.99998H659.78L659.528 9.6263L660.455 9.99998ZM795.455 9.99998H796.455V8.99998H795.455V9.99998ZM795.455 360V361H796.455V360H795.455ZM697.955 360H696.955V361H697.955V360ZM697.955 170L696.969 169.832L696.955 169.916V170H697.955ZM706.455 120L707.441 120.168L707.639 119H706.455V120ZM703.455 120V119H702.784L702.53 119.621L703.455 120ZM637.955 280V281H638.626L638.881 280.379L637.955 280ZM535.455 280L534.53 280.379L534.784 281H535.455V280ZM469.955 120L470.881 119.621L470.626 119H469.955V120ZM466.955 120V119H465.771L465.969 120.168L466.955 120ZM475.455 170H476.455V169.916L476.441 169.832L475.455 170ZM475.455 360V361H476.455V360H475.455ZM395.455 342.5H394.455V343.5H395.455V342.5ZM457.955 342.5V343.5H458.955V342.5H457.955ZM457.955 170H458.955V169.923L458.943 169.846L457.955 170ZM447.455 102.5V101.5H446.288L446.467 102.654L447.455 102.5ZM481.455 102.5L482.381 102.121L482.126 101.5H481.455V102.5ZM546.955 262.5L546.03 262.879L546.284 263.5H546.955V262.5ZM626.455 262.5V263.5H627.126L627.381 262.879L626.455 262.5ZM691.955 102.5V101.5H691.284L691.03 102.121L691.955 102.5ZM725.955 102.5L726.943 102.654L727.123 101.5H725.955V102.5ZM715.455 170L714.467 169.846L714.455 169.923V170H715.455ZM715.455 342.5H714.455V343.5H715.455V342.5ZM777.955 342.5V343.5H778.955V342.5H777.955ZM777.955 27.5H778.955V26.5H777.955V27.5ZM671.955 27.5V26.5H671.28L671.028 27.1263L671.955 27.5ZM601.455 202.5V203.5H602.13L602.383 202.874L601.455 202.5ZM571.955 202.5L571.028 202.874L571.28 203.5H571.955V202.5ZM501.455 27.5L502.383 27.1263L502.13 26.5H501.455V27.5ZM395.455 27.5V26.5H394.455V27.5H395.455ZM378.955 360V9.99998H376.955V360H378.955ZM377.955 11H512.955V8.99998H377.955V11ZM512.028 10.3737L582.528 185.374L584.383 184.626L513.883 9.6263L512.028 10.3737ZM583.455 186H589.955V184H583.455V186ZM590.883 185.374L661.383 10.3737L659.528 9.6263L589.028 184.626L590.883 185.374ZM660.455 11H795.455V8.99998H660.455V11ZM794.455 9.99998V360H796.455V9.99998H794.455ZM795.455 359H697.955V361H795.455V359ZM698.955 360V170H696.955V360H698.955ZM698.941 170.168L707.441 120.168L705.469 119.832L696.969 169.832L698.941 170.168ZM706.455 119H703.455V121H706.455V119ZM702.53 119.621L637.03 279.621L638.881 280.379L704.381 120.379L702.53 119.621ZM637.955 279H535.455V281H637.955V279ZM536.381 279.621L470.881 119.621L469.03 120.379L534.53 280.379L536.381 279.621ZM469.955 119H466.955V121H469.955V119ZM465.969 120.168L474.469 170.168L476.441 169.832L467.941 119.832L465.969 120.168ZM474.455 170V360H476.455V170H474.455ZM475.455 359H377.955V361H475.455V359ZM395.455 343.5H457.955V341.5H395.455V343.5ZM458.955 342.5V170H456.955V342.5H458.955ZM458.943 169.846L448.443 102.346L446.467 102.654L456.967 170.154L458.943 169.846ZM447.455 103.5H481.455V101.5H447.455V103.5ZM480.53 102.879L546.03 262.879L547.881 262.121L482.381 102.121L480.53 102.879ZM546.955 263.5H626.455V261.5H546.955V263.5ZM627.381 262.879L692.881 102.879L691.03 102.121L625.53 262.121L627.381 262.879ZM691.955 103.5H725.955V101.5H691.955V103.5ZM724.967 102.346L714.467 169.846L716.443 170.154L726.943 102.654L724.967 102.346ZM714.455 170V342.5H716.455V170H714.455ZM715.455 343.5H777.955V341.5H715.455V343.5ZM778.955 342.5V27.5H776.955V342.5H778.955ZM777.955 26.5H671.955V28.5H777.955V26.5ZM671.028 27.1263L600.528 202.126L602.383 202.874L672.883 27.8737L671.028 27.1263ZM601.455 201.5H571.955V203.5H601.455V201.5ZM572.883 202.126L502.383 27.1263L500.528 27.8737L571.028 202.874L572.883 202.126ZM501.455 26.5H395.455V28.5H501.455V26.5ZM394.455 27.5V342.5H396.455V27.5H394.455ZM860.377 360H859.377V361H860.377V360ZM860.377 9.99998V8.99998H859.377V9.99998H860.377ZM877.877 342.5H876.877V343.5H877.877V342.5ZM877.877 27.5V26.5H876.877V27.5H877.877ZM940.377 287.5H939.377V288.5H940.377V287.5ZM940.377 82.5V81.5H939.377V82.5H940.377ZM957.877 270H956.877V271H957.877V270ZM957.877 100V99H956.877V100H957.877ZM861.377 360V9.99998H859.377V360H861.377ZM860.377 11H995.877V8.99998H860.377V11ZM995.877 11C1112.4 11 1189.38 88.121 1189.38 185H1191.38C1191.38 86.879 1113.36 8.99998 995.877 8.99998V11ZM1189.38 185C1189.38 281.879 1112.4 359 995.877 359V361C1113.36 361 1191.38 283.121 1191.38 185H1189.38ZM995.877 359H860.377V361H995.877V359ZM877.877 343.5H995.877V341.5H877.877V343.5ZM995.877 343.5C1103.35 343.5 1173.88 273.128 1173.88 185H1171.88C1171.88 271.872 1102.4 341.5 995.877 341.5V343.5ZM1173.88 185C1173.88 96.8719 1103.35 26.5 995.877 26.5V28.5C1102.4 28.5 1171.88 98.1281 1171.88 185H1173.88ZM995.877 26.5H877.877V28.5H995.877V26.5ZM876.877 27.5V342.5H878.877V27.5H876.877ZM941.377 287.5V82.5H939.377V287.5H941.377ZM940.377 83.5H995.377V81.5H940.377V83.5ZM995.377 83.5C1030.19 83.5 1057.42 93.4438 1075.94 111.037C1094.45 128.626 1104.38 153.968 1104.38 185H1106.38C1106.38 153.532 1096.3 127.624 1077.32 109.587C1058.34 91.5562 1030.56 81.5 995.377 81.5V83.5ZM1104.38 185C1104.38 216.032 1094.45 241.374 1075.94 258.962C1057.42 276.556 1030.19 286.5 995.377 286.5V288.5C1030.56 288.5 1058.34 278.444 1077.32 260.412C1096.3 242.376 1106.38 216.468 1106.38 185H1104.38ZM995.377 286.5H940.377V288.5H995.377V286.5ZM957.877 271H995.377V269H957.877V271ZM995.377 271C1025.55 271 1048.95 262.826 1064.81 247.916C1080.68 232.999 1088.88 211.46 1088.88 185H1086.88C1086.88 211.04 1078.82 232.001 1063.44 246.459C1048.05 260.924 1025.2 269 995.377 269V271ZM1088.88 185C1088.88 158.54 1080.68 137.001 1064.81 122.084C1048.95 107.174 1025.55 99 995.377 99V101C1025.2 101 1048.05 109.076 1063.44 123.541C1078.82 137.999 1086.88 158.96 1086.88 185H1088.88ZM995.377 99H957.877V101H995.377V99ZM956.877 100V270H958.877V100H956.877Z" fill="black"/>
</mask>
<g mask="url(#mask0_0_69)">
<g filter="url(#filter0_f_0_69)">
<ellipse cx="602.5" cy="183" rx="625.5" ry="150" fill="white" fill-opacity="0.06"/>
</g>
</g>
<defs>
<filter id="filter0_f_0_69" x="-122" y="-66" width="1449" height="498" filterUnits="userSpaceOnUse" color-interpolation-filters="sRGB">
<feFlood flood-opacity="0" result="BackgroundImageFix"/>
<feBlend mode="normal" in="SourceGraphic" in2="BackgroundImageFix" result="shape"/>
<feGaussianBlur stdDeviation="49.5" result="effect1_foregroundBlur_0_69"/>
</filter>
</defs>
</svg>
