<svg width="155" height="61" viewBox="0 0 155 61" fill="none" xmlns="http://www.w3.org/2000/svg">
<path d="M146.833 44.4999C146.833 45.9726 148.027 47.1666 149.5 47.1666C150.973 47.1666 152.167 45.9726 152.167 44.4999C152.167 43.0271 150.973 41.8332 149.5 41.8332C148.027 41.8332 146.833 43.0271 146.833 44.4999ZM118 57.9999L118.033 58.4988L118 57.9999ZM78.5 11.4999L78.2198 11.9141L78.2198 11.9141L78.5 11.4999ZM148.833 22.9999C148.833 24.4726 150.027 25.6665 151.5 25.6665C152.973 25.6665 154.167 24.4726 154.167 22.9999C154.167 21.5271 152.973 20.3332 151.5 20.3332C150.027 20.3332 148.833 21.5271 148.833 22.9999ZM149.002 44.4566C148.856 46.1377 147.245 48.9942 142.53 51.6518C137.833 54.2989 130.121 56.704 117.967 57.501L118.033 58.4988C130.279 57.6958 138.151 55.2676 143.021 52.523C147.872 49.7889 149.811 46.6954 149.998 44.5432L149.002 44.4566ZM117.967 57.501C102.765 58.4979 85.5695 56.5038 69.7896 55.2515C61.9117 54.6262 54.3883 54.1867 47.6712 54.4064C40.9593 54.6259 35.0112 55.5044 30.3016 57.541L30.6985 58.4588C35.2388 56.4954 41.0407 55.6238 47.7039 55.4059C54.3617 55.1881 61.8383 55.6235 69.7104 56.2483C85.4305 57.4959 102.735 59.5019 118.033 58.4988L117.967 57.501ZM30.3016 57.541C21.3072 61.4304 11.0524 57.5539 5.60208 49.4704C0.178803 41.4269 -0.492519 29.1673 9.88898 16.3141L9.11104 15.6857C-1.50747 28.8324 -0.928787 41.5729 4.77294 50.0294C10.4477 58.4458 21.1929 62.5693 30.6985 58.4588L30.3016 57.541ZM9.88898 16.3141C20.2574 3.47702 34.1641 0.244397 47.0935 1.29098C60.0407 2.33901 71.9594 7.67901 78.2198 11.9141L78.7802 11.0858C72.3975 6.76805 60.3161 1.35803 47.1741 0.294242C34.0144 -0.770991 19.7427 2.52276 9.11104 15.6857L9.88898 16.3141ZM78.2198 11.9141C82.6059 14.8811 89.1811 15.7187 96.5172 15.6952C103.87 15.6717 112.124 14.7779 119.913 14.186C127.732 13.5917 135.071 13.3025 140.697 14.4507C143.504 15.0238 145.847 15.948 147.601 17.3398C149.345 18.7227 150.531 20.5852 151.009 23.0934L151.991 22.9063C151.469 20.1645 150.155 18.0896 148.223 16.5564C146.302 15.0323 143.792 14.062 140.897 13.4709C135.116 12.291 127.643 12.5956 119.837 13.1889C112.001 13.7844 103.818 14.6719 96.514 14.6952C89.1939 14.7187 82.8941 13.8687 78.7802 11.0858L78.2198 11.9141Z" fill="white"/>
</svg>
